<svg xmlns="http://www.w3.org/2000/svg" version="1.1" xmlns:xlink="http://www.w3.org/1999/xlink" viewBox="0 0 200 200"><rect width="200" height="200" fill="url('#gradient')"></rect><defs><linearGradient id="gradient" gradientTransform="rotate(45 0.5 0.5)"><stop offset="0%" stop-color="#bfd7ea"></stop><stop offset="100%" stop-color="#508ca4"></stop></linearGradient></defs><g><g fill="#fbff24" transform="matrix(8.394324750394114,0,0,8.394324750394114,51.31213687251132,160.1434083884475)" stroke="#004f2d" stroke-width="0.3"><path d="M7.42-3.77L7.42-3.77Q7.42-4.54 7.04-4.98Q6.66-5.42 5.70-5.81Q4.75-6.20 3.94-6.60Q3.13-7.00 2.54-7.53Q1.95-8.06 1.64-8.75Q1.33-9.44 1.33-10.43L1.33-10.43Q1.33-12.08 2.44-13.15Q3.55-14.22 5.41-14.39L5.41-14.39L5.41-16.46L6.96-16.46L6.96-14.36Q8.75-14.09 9.77-12.89Q10.79-11.68 10.79-9.82L10.79-9.82L7.49-9.82Q7.49-10.84 7.10-11.39Q6.71-11.93 5.99-11.93L5.99-11.93Q5.34-11.93 4.99-11.53Q4.63-11.12 4.63-10.41L4.63-10.41Q4.63-9.69 5.04-9.26Q5.45-8.84 6.36-8.45Q7.27-8.07 8.07-7.65Q8.88-7.24 9.46-6.71Q10.05-6.18 10.38-5.48Q10.71-4.78 10.71-3.79L10.71-3.79Q10.71-2.12 9.65-1.06Q8.59-0.01 6.77 0.17L6.77 0.17L6.77 2.13L5.21 2.13L5.21 0.16Q3.09-0.07 1.95-1.30Q0.81-2.54 0.81-4.56L0.81-4.56L4.10-4.56Q4.10-3.45 4.59-2.87Q5.09-2.29 6.00-2.29L6.00-2.29Q6.66-2.29 7.04-2.68Q7.42-3.08 7.42-3.77Z"></path></g></g></svg>